<svg xmlns="http://www.w3.org/2000/svg" width="960" height="540" viewBox="0 0 960 540">
<style>
.title { font: 700 22px system-ui, -apple-system, Segoe UI, sans-serif; fill: #111827; }
.axis { font: 600 14px system-ui, -apple-system, Segoe UI, sans-serif; fill: #374151; }
.tick { font: 12px system-ui, -apple-system, Segoe UI, sans-serif; fill: #4b5563; }
.legend { font: 13px system-ui, -apple-system, Segoe UI, sans-serif; fill: #111827; }
.label { font: 700 12px system-ui, -apple-system, Segoe UI, sans-serif; fill: #111827; }
</style>
<rect x="0" y="0" width="960" height="540" fill="#ffffff"/>
<text x="84" y="30" class="title">HKVC Query Scaling</text>
<line x1="84" y1="462" x2="924" y2="462" stroke="#111827"/>
<line x1="84" y1="46" x2="84" y2="462" stroke="#111827"/>
<line x1="84" y1="462.00" x2="924" y2="462.00" stroke="#e5e7eb"/>
<text x="74" y="466.00" class="tick" text-anchor="end">11.8</text>
<line x1="84" y1="358.00" x2="924" y2="358.00" stroke="#e5e7eb"/>
<text x="74" y="362.00" class="tick" text-anchor="end">12.0</text>
<line x1="84" y1="254.00" x2="924" y2="254.00" stroke="#e5e7eb"/>
<text x="74" y="258.00" class="tick" text-anchor="end">12.3</text>
<line x1="84" y1="150.00" x2="924" y2="150.00" stroke="#e5e7eb"/>
<text x="74" y="154.00" class="tick" text-anchor="end">12.5</text>
<line x1="84" y1="46.00" x2="924" y2="46.00" stroke="#e5e7eb"/>
<text x="74" y="50.00" class="tick" text-anchor="end">12.8</text>
<text x="84.00" y="492" class="tick" text-anchor="middle">100</text>
<text x="294.00" y="492" class="tick" text-anchor="middle">1,325</text>
<text x="504.00" y="492" class="tick" text-anchor="middle">2,550</text>
<text x="714.00" y="492" class="tick" text-anchor="middle">3,775</text>
<text x="924.00" y="492" class="tick" text-anchor="middle">5,000</text>
<text x="504.0" y="526" class="axis" text-anchor="middle">Stored entries</text>
<text x="20" y="254.0" class="axis" text-anchor="middle" transform="rotate(-90 20 254.0)">Median query latency (us)</text>
<path d="M84.00,462.00 L238.29,244.78 L924.00,263.01" fill="none" stroke="#2563eb" stroke-width="3"/>
<circle cx="84.00" cy="462.00" r="4" fill="#2563eb"/>
<circle cx="238.29" cy="244.78" r="4" fill="#2563eb"/>
<circle cx="924.00" cy="263.01" r="4" fill="#2563eb"/>
<rect x="720" y="46" width="14" height="14" fill="#2563eb"/>
<text x="742" y="58" class="legend">median</text>
<path d="M84.00,371.51 L238.29,136.71 L924.00,46.00" fill="none" stroke="#16a34a" stroke-width="3"/>
<circle cx="84.00" cy="371.51" r="4" fill="#16a34a"/>
<circle cx="238.29" cy="136.71" r="4" fill="#16a34a"/>
<circle cx="924.00" cy="46.00" r="4" fill="#16a34a"/>
<rect x="720" y="70" width="14" height="14" fill="#16a34a"/>
<text x="742" y="82" class="legend">p95</text>
</svg>
