<svg xmlns="http://www.w3.org/2000/svg" width="960" height="540" viewBox="0 0 960 540">
<style>
.title { font: 700 22px system-ui, -apple-system, Segoe UI, sans-serif; fill: #111827; }
.axis { font: 600 14px system-ui, -apple-system, Segoe UI, sans-serif; fill: #374151; }
.tick { font: 12px system-ui, -apple-system, Segoe UI, sans-serif; fill: #4b5563; }
.legend { font: 13px system-ui, -apple-system, Segoe UI, sans-serif; fill: #111827; }
.label { font: 700 12px system-ui, -apple-system, Segoe UI, sans-serif; fill: #111827; }
</style>
<rect x="0" y="0" width="960" height="540" fill="#ffffff"/>
<text x="84" y="30" class="title">Token Efficiency: Progressive Tool Discovery</text>
<line x1="84" y1="462" x2="924" y2="462" stroke="#111827"/>
<line x1="84" y1="46" x2="84" y2="462" stroke="#111827"/>
<line x1="84" y1="462.00" x2="924" y2="462.00" stroke="#e5e7eb"/>
<text x="74" y="466.00" class="tick" text-anchor="end">0.00</text>
<line x1="84" y1="358.00" x2="924" y2="358.00" stroke="#e5e7eb"/>
<text x="74" y="362.00" class="tick" text-anchor="end">25.00</text>
<line x1="84" y1="254.00" x2="924" y2="254.00" stroke="#e5e7eb"/>
<text x="74" y="258.00" class="tick" text-anchor="end">50.00</text>
<line x1="84" y1="150.00" x2="924" y2="150.00" stroke="#e5e7eb"/>
<text x="74" y="154.00" class="tick" text-anchor="end">75.00</text>
<line x1="84" y1="46.00" x2="924" y2="46.00" stroke="#e5e7eb"/>
<text x="74" y="50.00" class="tick" text-anchor="end">100.00</text>
<text x="84.00" y="492" class="tick" text-anchor="middle">10</text>
<text x="294.00" y="492" class="tick" text-anchor="middle">32</text>
<text x="504.00" y="492" class="tick" text-anchor="middle">55</text>
<text x="714.00" y="492" class="tick" text-anchor="middle">78</text>
<text x="924.00" y="492" class="tick" text-anchor="middle">100</text>
<text x="504.0" y="526" class="axis" text-anchor="middle">Registered tools</text>
<text x="20" y="254.0" class="axis" text-anchor="middle" transform="rotate(-90 20 254.0)">Saved context (%)</text>
<path d="M84.00,78.73 L457.33,59.08 L924.00,52.54" fill="none" stroke="#2563eb" stroke-width="3"/>
<circle cx="84.00" cy="78.73" r="4" fill="#2563eb"/>
<circle cx="457.33" cy="59.08" r="4" fill="#2563eb"/>
<circle cx="924.00" cy="52.54" r="4" fill="#2563eb"/>
<rect x="720" y="46" width="14" height="14" fill="#2563eb"/>
<text x="742" y="58" class="legend">compact page</text>
<path d="M84.00,64.43 L457.33,49.66 L924.00,47.83" fill="none" stroke="#16a34a" stroke-width="3"/>
<circle cx="84.00" cy="64.43" r="4" fill="#16a34a"/>
<circle cx="457.33" cy="49.66" r="4" fill="#16a34a"/>
<circle cx="924.00" cy="47.83" r="4" fill="#16a34a"/>
<rect x="720" y="70" width="14" height="14" fill="#16a34a"/>
<text x="742" y="82" class="legend">compact discovery</text>
<path d="M84.00,87.96 L457.33,54.40 L924.00,50.20" fill="none" stroke="#dc2626" stroke-width="3"/>
<circle cx="84.00" cy="87.96" r="4" fill="#dc2626"/>
<circle cx="457.33" cy="54.40" r="4" fill="#dc2626"/>
<circle cx="924.00" cy="50.20" r="4" fill="#dc2626"/>
<rect x="720" y="94" width="14" height="14" fill="#dc2626"/>
<text x="742" y="106" class="legend">one schema expanded</text>
</svg>
